<svg width="180" height="180" viewBox="0 0 180 180" fill="none" xmlns="http://www.w3.org/2000/svg">
<path fill-rule="evenodd" clip-rule="evenodd" d="M97.1016 62.6914H173.056V68.6591H103.069L103.069 110.14H146.7V92.976H121.238V87.0084H152.668V116.108H97.1016L97.1016 62.6914Z" fill="#E2BE1C"/>
<path fill-rule="evenodd" clip-rule="evenodd" d="M37.841 62.6523V109.287L36.8866 112.112L35.1311 114.108L32.8932 115.571L30.075 116.21H4.38525V110.242H29.4074L30.5267 109.989L31.186 109.557L31.6156 109.069L31.8733 108.306V62.6523H37.841ZM83.5951 62.6924V116.192H77.6275V94.1332H45.2711V88.1656H77.6275V62.6924H83.5951Z" fill="#E2BE1C"/>
<path fill-rule="evenodd" clip-rule="evenodd" d="M89.9997 175.15C137.027 175.15 175.151 137.026 175.151 89.9987C175.151 89.7021 175.149 89.4058 175.146 89.1099H178.876C178.879 89.4058 178.881 89.7021 178.881 89.9987C178.881 139.086 139.087 178.88 89.9997 178.88C48.2661 178.88 13.2505 150.117 3.69552 111.333H7.54293C17.0116 148.036 50.3392 175.15 89.9997 175.15ZM89.9997 1.11768C131.327 1.11768 166.066 29.3235 176.018 67.5349H172.157C162.301 31.4068 129.252 4.84747 89.9997 4.84747C42.972 4.84747 4.84845 42.971 4.84845 89.9987C4.84845 90.9323 4.86347 91.8624 4.89329 92.7887H1.16161C1.13304 91.8622 1.11865 90.9321 1.11865 89.9987C1.11865 40.9111 40.9121 1.11768 89.9997 1.11768Z" fill="#E2BE1C"/>
<path fill-rule="evenodd" clip-rule="evenodd" d="M0 90C0 40.2944 40.2944 0 90 0C131.849 0 167.024 28.562 177.101 67.2542L177.466 68.6551H171.302L171.077 67.8306C161.351 32.1768 128.735 5.96768 90 5.96768C43.5902 5.96768 5.96768 43.5902 5.96768 90C5.96768 90.9216 5.98251 91.8396 6.01194 92.7539L6.04912 93.9089H0.0769242L0.0434864 92.8244C0.0145654 91.8864 0 90.9449 0 90ZM90 2.23788C41.5303 2.23788 2.23788 41.5303 2.23788 90C2.23788 90.5582 2.24309 91.1152 2.25346 91.671H3.74566C3.7351 91.1152 3.7298 90.5582 3.7298 90C3.7298 42.3543 42.3543 3.7298 90 3.7298C129.471 3.7298 162.747 30.2359 173.007 66.4172H174.558C164.256 29.4002 130.299 2.23788 90 2.23788ZM174.016 87.9922H179.985L179.996 89.1002C179.999 89.3998 180 89.6997 180 90C180 139.706 139.706 180 90 180C47.7395 180 12.2846 150.874 2.60935 111.601L2.26774 110.215H8.41013L8.62668 111.054C17.971 147.275 50.8622 174.032 90 174.032C136.41 174.032 174.032 136.41 174.032 90C174.032 89.7072 174.031 89.4147 174.028 89.1226L174.016 87.9922ZM176.27 90.2301C176.146 137.77 137.569 176.27 90 176.27C50.1197 176.27 16.5623 149.211 6.68085 112.453H5.13597C15.0552 150.045 49.2922 177.762 90 177.762C138.393 177.762 177.638 138.594 177.762 90.2301H176.27Z" fill="#E2BE1C"/>
<path fill-rule="evenodd" clip-rule="evenodd" d="M97.1016 62.6914H173.056V68.6591H103.069L103.069 110.14H146.7V92.976H121.238V87.0084H152.668V116.108H97.1016L97.1016 62.6914Z" fill="#E2BE1C"/>
<path fill-rule="evenodd" clip-rule="evenodd" d="M37.841 62.6523V109.287L36.8866 112.112L35.1311 114.108L32.8932 115.571L30.075 116.21H4.38525V110.242H29.4074L30.5267 109.989L31.186 109.557L31.6156 109.069L31.8733 108.306V62.6523H37.841ZM83.5951 62.6924V116.192H77.6275V94.1332H45.2711V88.1656H77.6275V62.6924H83.5951Z" fill="#E2BE1C"/>
<path fill-rule="evenodd" clip-rule="evenodd" d="M89.9997 175.15C137.027 175.15 175.151 137.026 175.151 89.9987C175.151 89.7021 175.149 89.4058 175.146 89.1099H178.876C178.879 89.4058 178.881 89.7021 178.881 89.9987C178.881 139.086 139.087 178.88 89.9997 178.88C48.2661 178.88 13.2505 150.117 3.69552 111.333H7.54293C17.0116 148.036 50.3392 175.15 89.9997 175.15ZM89.9997 1.11768C131.327 1.11768 166.066 29.3235 176.018 67.5349H172.157C162.301 31.4068 129.252 4.84747 89.9997 4.84747C42.972 4.84747 4.84845 42.971 4.84845 89.9987C4.84845 90.9323 4.86347 91.8624 4.89329 92.7887H1.16161C1.13304 91.8622 1.11865 90.9321 1.11865 89.9987C1.11865 40.9111 40.9121 1.11768 89.9997 1.11768Z" fill="#E2BE1C"/>
<path fill-rule="evenodd" clip-rule="evenodd" d="M0 90C0 40.2944 40.2944 0 90 0C131.849 0 167.024 28.562 177.101 67.2542L177.466 68.6551H171.302L171.077 67.8306C161.351 32.1768 128.735 5.96768 90 5.96768C43.5902 5.96768 5.96768 43.5902 5.96768 90C5.96768 90.9216 5.98251 91.8396 6.01194 92.7539L6.04912 93.9089H0.0769242L0.0434864 92.8244C0.0145654 91.8864 0 90.9449 0 90ZM90 2.23788C41.5303 2.23788 2.23788 41.5303 2.23788 90C2.23788 90.5582 2.24309 91.1152 2.25346 91.671H3.74566C3.7351 91.1152 3.7298 90.5582 3.7298 90C3.7298 42.3543 42.3543 3.7298 90 3.7298C129.471 3.7298 162.747 30.2359 173.007 66.4172H174.558C164.256 29.4002 130.299 2.23788 90 2.23788ZM174.016 87.9922H179.985L179.996 89.1002C179.999 89.3998 180 89.6997 180 90C180 139.706 139.706 180 90 180C47.7395 180 12.2846 150.874 2.60935 111.601L2.26774 110.215H8.41013L8.62668 111.054C17.971 147.275 50.8622 174.032 90 174.032C136.41 174.032 174.032 136.41 174.032 90C174.032 89.7072 174.031 89.4147 174.028 89.1226L174.016 87.9922ZM176.27 90.2301C176.146 137.77 137.569 176.27 90 176.27C50.1197 176.27 16.5623 149.211 6.68085 112.453H5.13597C15.0552 150.045 49.2922 177.762 90 177.762C138.393 177.762 177.638 138.594 177.762 90.2301H176.27Z" fill="#E2BE1C"/>
</svg>
